<svg width="1360" height="885" viewBox="0 0 1360 885" fill="none" xmlns="http://www.w3.org/2000/svg">
<path d="M771.19 527.01L998.552 429.134C1006.35 425.776 1013.69 421.439 1020.39 416.227L1113.57 343.779C1121.48 337.628 1128.42 330.323 1134.16 322.109L1237.76 173.82C1249.94 156.394 1267.35 143.302 1287.47 136.442L1314.76 127.139C1338 119.213 1354.77 98.8266 1358.06 74.4878C1363.32 35.601 1333.08 1 1293.84 1H101C45.7715 1 1 45.7715 1 101V859.725C1 873.132 11.8681 884 25.2746 884C28.7363 884 31.9794 883.548 35.4341 883.328C86.9038 880.056 505.197 897.511 586.384 819.253C593.311 812.576 660.566 668.908 728.51 562.734C738.74 546.748 753.757 534.515 771.19 527.01Z" fill="#FCEDEE"/>
<path d="M998.552 429.134L998.354 428.675L998.354 428.675L998.552 429.134ZM771.19 527.01L770.992 526.551L770.992 526.551L771.19 527.01ZM728.51 562.734L728.089 562.464L728.089 562.464L728.51 562.734ZM586.384 819.253L586.731 819.613L586.731 819.613L586.384 819.253ZM35.4341 883.328L35.4023 882.829L35.4023 882.829L35.4341 883.328ZM1314.76 127.139L1314.92 127.612L1314.92 127.612L1314.76 127.139ZM1287.47 136.442L1287.63 136.915L1287.63 136.915L1287.47 136.442ZM1237.76 173.82L1238.17 174.106L1238.17 174.106L1237.76 173.82ZM1134.16 322.109L1133.75 321.822L1133.75 321.822L1134.16 322.109ZM1113.57 343.779L1113.87 344.174L1113.87 344.174L1113.57 343.779ZM1020.39 416.227L1020.7 416.621L1020.7 416.621L1020.39 416.227ZM1358.06 74.4878L1358.56 74.5548L1358.56 74.5548L1358.06 74.4878ZM998.354 428.675L770.992 526.551L771.387 527.47L998.749 429.593L998.354 428.675ZM728.089 562.464C694.104 615.571 660.297 678.047 634.123 728.073C621.037 753.084 609.853 774.994 601.515 791.055C597.345 799.089 593.887 805.658 591.255 810.427C589.939 812.812 588.833 814.741 587.95 816.176C587.054 817.63 586.417 818.527 586.037 818.893L586.731 819.613C587.217 819.144 587.917 818.136 588.801 816.7C589.697 815.245 590.812 813.3 592.131 810.91C594.769 806.129 598.232 799.55 602.403 791.516C610.746 775.444 621.922 753.548 635.009 728.536C661.18 678.516 694.971 616.071 728.931 563.003L728.089 562.464ZM586.037 818.893C575.961 828.605 560.621 836.862 541.341 843.871C522.068 850.876 498.897 856.621 473.195 861.328C421.791 870.742 360.31 875.997 299.741 878.911C239.175 881.824 179.535 882.395 131.816 882.441C84.118 882.488 48.2905 882.01 35.4023 882.829L35.4658 883.827C48.3124 883.01 84.0728 883.488 131.817 883.441C179.542 883.395 239.2 882.824 299.789 879.91C360.375 876.995 421.907 871.737 473.375 862.311C499.109 857.599 522.339 851.842 541.683 844.81C561.019 837.782 576.51 829.465 586.731 819.613L586.037 818.893ZM1314.59 126.665L1287.31 135.969L1287.63 136.915L1314.92 127.612L1314.59 126.665ZM1237.35 173.533L1133.75 321.822L1134.57 322.395L1238.17 174.106L1237.35 173.533ZM1113.26 343.384L1020.09 415.832L1020.7 416.621L1113.87 344.174L1113.26 343.384ZM1293.84 0.5H101V1.5H1293.84V0.5ZM0.5 101V859.725H1.5V101H0.5ZM0.5 859.725C0.5 873.408 11.592 884.5 25.2746 884.5V883.5C12.1443 883.5 1.5 872.856 1.5 859.725H0.5ZM101 0.5C45.4954 0.5 0.5 45.4954 0.5 101H1.5C1.5 46.0477 46.0477 1.5 101 1.5V0.5ZM1133.75 321.822C1128.04 329.995 1121.13 337.264 1113.26 343.384L1113.87 344.174C1121.82 337.992 1128.8 330.65 1134.57 322.395L1133.75 321.822ZM1357.57 74.4208C1354.3 98.5718 1337.66 118.801 1314.59 126.665L1314.92 127.612C1338.34 119.625 1355.24 99.0814 1358.56 74.5548L1357.57 74.4208ZM770.992 526.551C753.474 534.092 738.377 546.388 728.089 562.464L728.931 563.003C739.104 547.107 754.04 534.938 771.387 527.47L770.992 526.551ZM998.749 429.593C1006.59 426.219 1013.96 421.86 1020.7 416.621L1020.09 415.832C1013.42 421.018 1006.11 425.334 998.354 428.675L998.749 429.593ZM1287.31 135.969C1267.08 142.863 1249.59 156.021 1237.35 173.533L1238.17 174.106C1250.29 156.768 1267.61 143.741 1287.63 136.915L1287.31 135.969ZM35.4023 882.829C31.8953 883.052 28.7194 883.5 25.2746 883.5V884.5C28.7532 884.5 32.0634 884.043 35.4658 883.827L35.4023 882.829ZM1358.56 74.5548C1363.86 35.3679 1333.39 0.5 1293.84 0.5V1.5C1332.78 1.5 1362.78 35.834 1357.57 74.4208L1358.56 74.5548Z" fill="#FCEDEE"/>
</svg>
